HIERARCHY
ROOT root
{
	OFFSET 0.000000 0.000000 0.000000
	CHANNELS 6 Xposition Yposition Zposition Zrotation Yrotation Xrotation
	JOINT lhip
	{
		OFFSET 0.058581 -0.082280 -0.017664
		CHANNELS 3 Zrotation Yrotation Xrotation
		JOINT lknee
		{
			OFFSET 0.043451 -0.386469 0.008037
			CHANNELS 3 Zrotation Yrotation Xrotation
			JOINT lankle
			{
				OFFSET -0.014790 -0.426874 -0.037428
				CHANNELS 3 Zrotation Yrotation Xrotation
				JOINT ltoe
				{
					OFFSET 0.041054 -0.060286 0.122042
					CHANNELS 3 Zrotation Yrotation Xrotation
					End Site
					{
						OFFSET 0.000000 0.000000 0.000000
					}
				}
			}
		}
	}
	JOINT rhip
	{
		OFFSET -0.060310 -0.090513 -0.013543
		CHANNELS 3 Zrotation Yrotation Xrotation
		JOINT rknee
		{
			OFFSET -0.043257 -0.383688 -0.004843
			CHANNELS 3 Zrotation Yrotation Xrotation
			JOINT rankle
			{
				OFFSET 0.019056 -0.420046 -0.034562
				CHANNELS 3 Zrotation Yrotation Xrotation
				JOINT rtoe
				{
					OFFSET -0.034840 -0.062106 0.130323
					CHANNELS 3 Zrotation Yrotation Xrotation
					End Site
					{
						OFFSET 0.000000 0.000000 0.000000
					}
				}
			}
		}
	}
	JOINT lowerback
	{
		OFFSET 0.004439 0.124404 -0.038385
		CHANNELS 3 Zrotation Yrotation Xrotation
		JOINT upperback
		{
			OFFSET 0.004488 0.137956 0.026820
			CHANNELS 3 Zrotation Yrotation Xrotation
			JOINT chest
			{
				OFFSET -0.002265 0.056032 0.002855
				CHANNELS 3 Zrotation Yrotation Xrotation
				JOINT lowerneck
				{
					OFFSET -0.013390 0.211636 -0.033468
					CHANNELS 3 Zrotation Yrotation Xrotation
					JOINT upperneck
					{
						OFFSET 0.010113 0.088937 0.050410
						CHANNELS 3 Zrotation Yrotation Xrotation
						End Site
						{
							OFFSET 0.000000 0.000000 0.000000
						}
					}
				}
				JOINT lclavicle
				{
					OFFSET 0.071702 0.114000 -0.018898
					CHANNELS 3 Zrotation Yrotation Xrotation
					JOINT lshoulder
					{
						OFFSET 0.122921 0.045205 -0.019046
						CHANNELS 3 Zrotation Yrotation Xrotation
						JOINT lelbow
						{
							OFFSET 0.255332 -0.015649 -0.022946
							CHANNELS 3 Zrotation Yrotation Xrotation
							JOINT lwrist
							{
								OFFSET 0.265709 0.012698 -0.007375
								CHANNELS 3 Zrotation Yrotation Xrotation
								End Site
								{
									OFFSET 0.000000 0.000000 0.000000
								}
							}
						}
					}
				}
				JOINT rclavicle
				{
					OFFSET -0.082954 0.112472 -0.023707
					CHANNELS 3 Zrotation Yrotation Xrotation
					JOINT rshoulder
					{
						OFFSET -0.113228 0.046853 -0.008472
						CHANNELS 3 Zrotation Yrotation Xrotation
						JOINT relbow
						{
							OFFSET -0.260127 -0.014369 -0.031269
							CHANNELS 3 Zrotation Yrotation Xrotation
							JOINT rwrist
							{
								OFFSET -0.269108 0.006794 -0.006027
								CHANNELS 3 Zrotation Yrotation Xrotation
								End Site
								{
									OFFSET 0.000000 0.000000 0.000000
								}
							}
						}
					}
				}
			}
		}
	}
}
MOTION
Frames: 7
Frame Time: 0.033333
1.735237 0.733138 0.982956 -88.498104 2.702240 87.729216 1.847629 -0.384406 5.708440 -1.898213 -14.982917 2.660799 5.840756 8.356553 -19.530691 0.000000 -0.000000 0.000000 1.886639 -3.141635 3.117092 3.078050 1.418653 4.930338 2.040033 -5.532975 -17.187562 0.000000 -0.000000 0.000000 -2.767922 2.477545 5.173531 1.501511 -2.051197 1.250484 2.234586 -1.242349 3.645761 4.412012 3.958854 -8.021647 1.116437 -1.743949 3.562666 -25.807071 5.156091 2.776975 -61.925759 -4.318263 7.918765 11.295598 -24.800940 4.189948 -0.506052 -2.732863 -9.688318 24.848783 -2.942160 1.861767 62.038543 0.613116 11.203527 -14.760769 23.821963 -3.544549 6.019661 0.735679 -9.979603 
1.734788 0.733240 0.982640 -88.491378 2.856162 87.979475 2.035256 -0.508096 5.493537 -1.891764 -14.753160 2.631826 5.952356 8.266137 -19.589092 0.000000 -0.000000 0.000000 2.087427 -3.064377 2.808625 3.032527 1.174143 5.038999 1.689471 -5.529179 -17.089583 0.000000 -0.000000 0.000000 -2.592056 2.479811 5.027200 1.504559 -1.988097 1.087554 2.229318 -1.289701 3.717943 4.237509 3.820907 -7.696532 1.144691 -1.725800 3.073751 -25.645891 5.179182 2.824236 -62.090847 -4.091609 7.901198 11.204635 -24.946018 4.599428 -0.965109 -2.843713 -10.054792 24.726793 -3.180273 1.876857 62.152158 0.581115 11.116225 -14.711949 24.145254 -3.271754 6.039782 0.951933 -10.249533 
1.735204 0.734318 0.982698 -88.504847 2.870999 88.025237 2.298150 -0.609147 5.342649 -2.256214 -14.809476 2.892878 6.238357 8.446971 -19.664286 0.000000 -0.000000 0.000000 1.915309 -2.880426 2.947807 3.323837 1.883054 5.710315 1.990322 -5.587217 -14.222565 0.000000 -0.000000 0.000000 -2.516004 2.417982 4.983586 1.532812 -1.959689 1.171357 2.159648 -1.285089 3.716241 4.178835 3.612281 -7.805080 1.217587 -1.618566 3.101031 -25.846998 5.115317 2.973392 -61.842947 -4.299889 7.635044 10.891174 -24.657894 4.729523 -1.430025 -2.672679 -10.124970 24.709758 -3.073985 1.973639 62.101618 0.667919 11.106727 -14.628219 23.905877 -3.481216 6.155920 0.917867 -10.220673 
1.734879 0.734406 0.982339 -88.478427 2.908772 88.101236 2.399146 -0.698702 5.335135 -2.336396 -14.800797 2.805310 6.248517 8.507532 -19.730641 0.000000 -0.000000 0.000000 1.940840 -2.695103 2.909519 3.374284 1.994741 5.763744 2.183202 -5.861171 -14.095929 0.000000 -0.000000 0.000000 -2.470806 2.346435 4.837353 1.574676 -1.926683 1.346308 2.093788 -1.315100 3.876947 4.307440 3.652473 -7.920040 1.396481 -1.773770 2.949377 -25.950444 5.211305 2.769824 -61.790315 -4.374418 7.725645 10.872063 -24.612729 4.664158 -1.509858 -2.713700 -9.989294 24.775931 -3.124878 1.799307 61.949033 0.770170 11.221449 -14.568892 23.919595 -3.543237 6.137397 0.910197 -10.050508 
1.734809 0.734326 0.982283 -88.493916 2.927416 88.163403 2.403546 -0.743459 5.222311 -2.353836 -14.783541 2.887929 6.295570 8.554166 -19.736349 0.000000 -0.000000 0.000000 2.002768 -2.629883 2.888826 3.310672 1.960945 5.693032 2.146271 -5.943750 -14.078423 0.000000 -0.000000 0.000000 -2.434750 2.340126 4.799722 1.592508 -1.890273 1.317431 2.103579 -1.287881 3.918348 4.343448 3.792060 -8.201927 1.289626 -1.748641 3.473617 -26.041624 5.222341 2.735839 -61.760128 -4.466419 7.737330 10.843979 -24.506490 4.653777 -1.480988 -2.722409 -9.926019 24.781460 -3.160107 1.839112 61.893644 0.818065 11.282153 -14.630146 23.880192 -3.614395 6.105974 0.984033 -10.012337 
1.734694 0.734269 0.982095 -88.494991 2.973336 88.222132 2.499633 -0.740458 5.144325 -2.459079 -14.746068 2.931993 6.353020 8.540519 -19.701199 0.000000 -0.000000 0.000000 2.014984 -2.652667 2.736142 3.366692 1.962226 5.889964 2.112278 -5.907053 -14.206090 0.000000 -0.000000 0.000000 -2.343995 2.330593 4.863879 1.537705 -1.891902 1.248016 2.131158 -1.225391 3.759554 4.148868 4.047975 -8.197966 1.321018 -1.252341 3.218196 -26.014575 5.071512 2.972657 -61.828871 -4.369218 7.669199 10.904315 -24.684685 4.702182 -1.407959 -2.599815 -10.054829 24.598684 -3.150084 1.997558 61.952657 0.732729 11.102605 -14.542582 24.046629 -3.515876 6.191628 0.945278 -10.200501 
1.734641 0.734281 0.982052 -88.504092 3.007614 88.309578 2.566806 -0.715755 5.005504 -2.523700 -14.764002 3.034092 6.362894 8.515811 -19.735850 0.000000 -0.000000 0.000000 2.038721 -2.637890 2.616482 3.383569 1.972338 5.921486 2.165401 -5.907872 -14.166110 0.000000 -0.000000 0.000000 -2.316924 2.329011 4.879271 1.558510 -1.844317 1.177920 2.093467 -1.217878 3.743387 4.190640 3.963958 -8.133273 1.262286 -1.440015 3.726563 -25.995700 5.074858 2.993955 -61.856184 -4.488233 7.733551 10.870757 -24.653897 4.702681 -1.461192 -2.679179 -10.114796 24.620316 -3.128216 2.058321 61.913403 0.787585 11.123103 -14.567804 23.992067 -3.582723 6.181895 1.007468 -10.196823 
